External Loads File
version=1
nRows=85
nColumns=13
Range=5.000000e-03-10 seconds
endheader
time 	forceRightX 	forceRightY 	forceRightZ 	pointRightX 	pointRightY 	pointRightZ 	forceLeftX 	forceLeftY 	forceLeftZ 	pointLeftX 	pointLeftY 	pointLeftZ 		
7.505000 64.073388 92.888198 -0.000000 0.142482 0.220563 -0.141746 -228.287578 182.536073 -0.000000 0.414357 0.417215 -0.374436
7.510000 56.460695 101.922637 -0.000000 0.139087 0.228534 -0.142018 -256.307846 227.152505 -0.000000 0.415934 0.407620 -0.375083
7.515000 53.412706 115.913221 -0.000000 0.136127 0.236920 -0.142105 -286.609434 276.195048 -0.000000 0.417212 0.397910 -0.375391
7.520000 55.068098 133.380769 -0.000000 0.133646 0.245519 -0.142179 -318.499492 328.857319 -0.000000 0.418331 0.388033 -0.375059
7.525000 61.105138 152.384361 -0.000000 0.131840 0.254482 -0.142250 -350.912034 384.208705 -0.000000 0.419079 0.377844 -0.374650
7.530000 70.573430 170.873613 -0.000000 0.130688 0.263569 -0.142253 -382.963779 440.936978 -0.000000 0.419409 0.367360 -0.374301
7.535000 82.171709 186.913994 -0.000000 0.130197 0.272779 -0.142328 -413.622275 497.937421 -0.000000 0.419310 0.356667 -0.374146
7.540000 94.402519 198.943280 -0.000000 0.130314 0.282165 -0.142338 -441.826109 554.347302 -0.000000 0.418850 0.345910 -0.373893
7.545000 105.785905 205.930727 -0.000000 0.131241 0.291578 -0.142436 -466.495231 609.602923 -0.000000 0.417841 0.334888 -0.373780
7.550000 114.906344 207.498707 -0.000000 0.132918 0.301015 -0.142668 -486.851531 663.141074 -0.000000 0.416382 0.323852 -0.373652
7.555000 120.627552 203.859202 -0.000000 0.135338 0.310339 -0.142899 -502.013320 714.438511 -0.000000 0.414308 0.312879 -0.373717
7.560000 122.258737 195.701133 -0.000000 0.138371 0.319453 -0.143126 -510.703537 762.920951 -0.000000 0.411593 0.302061 -0.373728
7.565000 119.951384 183.827494 -0.000000 0.142194 0.328616 -0.143239 -510.043462 808.779836 -0.000000 0.408369 0.291295 -0.373893
7.570000 113.823561 169.483141 -0.000000 0.146460 0.337687 -0.143258 -499.141494 850.818265 -0.000000 0.404729 0.280594 -0.374455
7.575000 104.216660 153.965525 -0.000000 0.151310 0.346564 -0.143130 -478.565154 887.258479 -0.000000 0.400443 0.270305 -0.374364
7.580000 92.005673 138.186641 -0.000000 0.156530 0.355331 -0.143055 -448.058308 917.222732 -0.000000 0.395633 0.260282 -0.374358
7.585000 78.046999 122.884964 -0.000000 0.162370 0.363984 -0.142877 -408.158201 939.758314 -0.000000 0.390383 0.250490 -0.374355
7.590000 62.997131 108.629216 -0.000000 0.168537 0.372404 -0.142744 -360.718865 953.688065 -0.000000 0.384484 0.241043 -0.374428
7.595000 47.587543 95.565509 -0.000000 0.174729 0.381016 -0.143170 -306.171747 958.742638 -0.000000 0.378154 0.231818 -0.374534
7.600000 32.145375 83.661129 -0.000000 0.181833 0.389027 -0.142943 -247.585869 954.087678 -0.000000 0.371428 0.223168 -0.374692
7.605000 17.022908 72.505991 -0.000000 0.189229 0.396656 -0.142685 -187.048499 939.837853 -0.000000 0.364455 0.214924 -0.374610
7.610000 2.539844 61.523873 -0.000000 0.197032 0.404358 -0.142500 -125.460124 916.730069 -0.000000 0.357295 0.207140 -0.374565
7.615000 -11.259209 50.147314 -0.000000 0.205182 0.411807 -0.142310 -65.510375 885.465730 -0.000000 0.349860 0.199802 -0.374610
7.620000 -24.361063 37.897613 -0.000000 0.213679 0.419244 -0.141867 -8.401158 847.303960 -0.000000 0.342077 0.193053 -0.374667
7.625000 -36.880981 24.574622 -0.000000 0.222502 0.426429 -0.141390 44.152330 803.762166 -0.000000 0.333996 0.186821 -0.374619
7.630000 -48.891830 10.361884 -0.000000 0.231283 0.433289 -0.141078 90.071934 756.814798 -0.000000 0.325735 0.181058 -0.374539
7.635000 -60.218945 -3.950011 -0.000000 0.240434 0.439549 -0.140153 130.579939 708.270501 -0.000000 0.317051 0.175816 -0.374681
7.640000 -70.500654 -17.588160 -0.000000 0.249315 0.445488 -0.139969 163.687538 660.146322 -0.000000 0.308226 0.171157 -0.374697
7.645000 -79.229070 -29.574101 -0.000000 0.258407 0.451066 -0.139436 190.875217 613.489631 -0.000000 0.299230 0.167269 -0.374634
7.650000 -85.852733 -39.252928 -0.000000 0.267507 0.456194 -0.139461 212.162421 569.277045 -0.000000 0.290057 0.164095 -0.374512
7.655000 -89.840754 -46.241627 -0.000000 0.276422 0.460810 -0.139047 227.824235 528.496083 -0.000000 0.280775 0.161527 -0.374527
7.660000 -90.861413 -50.313840 -0.000000 0.285292 0.464779 -0.139075 238.982340 491.863010 -0.000000 0.271481 0.159291 -0.374768
7.665000 -88.918660 -51.296112 -0.000000 0.294514 0.468111 -0.138711 247.465715 459.304919 -0.000000 0.262042 0.157757 -0.374998
7.670000 -84.016688 -49.613465 -0.000000 0.303377 0.470907 -0.138470 252.617576 431.369651 -0.000000 0.252723 0.157082 -0.375069
7.675000 -76.586193 -45.460049 -0.000000 0.312153 0.473261 -0.138263 255.460151 407.248014 -0.000000 0.243474 0.156953 -0.375172
7.680000 -67.228296 -39.151515 -0.000000 0.320839 0.474848 -0.138140 256.500793 386.069874 -0.000000 0.234252 0.157340 -0.375366
7.685000 -56.639847 -31.024491 -0.000000 0.329352 0.475873 -0.137965 255.816029 367.124669 -0.000000 0.225198 0.158508 -0.375510
7.690000 -45.548645 -21.271758 -0.000000 0.337564 0.476206 -0.137786 253.476657 349.728656 -0.000000 0.216355 0.160207 -0.375682
7.695000 -34.632257 -9.874569 -0.000000 0.345437 0.475746 -0.137498 249.766702 333.127183 -0.000000 0.207775 0.162635 -0.375870
7.700000 -24.443709 3.344305 -0.000000 0.352974 0.474819 -0.137040 244.730830 316.870708 -0.000000 0.199422 0.165554 -0.376095
7.705000 -15.409299 18.763082 -0.000000 0.359921 0.473146 -0.136679 238.515762 300.608491 -0.000000 0.191311 0.169091 -0.376364
7.710000 -7.737753 36.927338 -0.000000 0.366513 0.470393 -0.136022 231.515245 283.984487 -0.000000 0.183686 0.173309 -0.376612
7.715000 -1.418117 58.424828 -0.000000 0.372659 0.467192 -0.135550 223.726222 267.179121 -0.000000 0.176306 0.178144 -0.376981
7.720000 3.668639 83.731921 -0.000000 0.378318 0.463382 -0.134481 215.127250 250.652020 -0.000000 0.169438 0.183439 -0.377237
7.725000 7.720186 113.000198 -0.000000 0.383342 0.458533 -0.133577 206.103368 234.765035 -0.000000 0.163079 0.189299 -0.377419
7.730000 10.711596 145.989598 -0.000000 0.388058 0.453339 -0.132547 196.821344 220.248844 -0.000000 0.157195 0.195669 -0.377468
7.735000 12.524875 182.153262 -0.000000 0.392463 0.447438 -0.131997 187.727980 207.669162 -0.000000 0.151767 0.202433 -0.377286
7.740000 12.579192 220.819294 -0.000000 0.396351 0.441066 -0.131395 178.996230 197.793570 -0.000000 0.146963 0.209625 -0.377114
7.745000 10.230384 261.309239 -0.000000 0.399828 0.434449 -0.130934 171.030035 190.998930 -0.000000 0.142615 0.217070 -0.377152
7.750000 5.219525 303.026266 -0.000000 0.403003 0.427085 -0.130439 164.473228 187.112601 -0.000000 0.138794 0.224748 -0.377392
7.755000 -2.833082 345.487900 -0.000000 0.405943 0.419160 -0.130242 159.623452 185.819322 -0.000000 0.135481 0.232682 -0.377631
7.760000 -13.832217 388.230571 -0.000000 0.408763 0.410682 -0.130270 156.743287 186.343700 -0.000000 0.132722 0.241010 -0.377654
7.765000 -27.682136 430.751754 -0.000000 0.411550 0.401718 -0.130388 155.713563 187.809927 -0.000000 0.130552 0.249557 -0.377647
7.770000 -44.193339 472.482448 -0.000000 0.413745 0.392318 -0.130285 156.112538 189.288541 -0.000000 0.128944 0.258297 -0.377718
7.775000 -62.612584 512.834064 -0.000000 0.415654 0.382712 -0.130505 157.455393 189.785919 -0.000000 0.128144 0.267291 -0.377891
7.780000 -81.901697 551.244389 -0.000000 0.416917 0.372808 -0.130626 159.186273 188.474747 -0.000000 0.127857 0.276398 -0.378017
7.785000 -100.568078 587.304774 -0.000000 0.418024 0.362596 -0.130982 160.874145 184.699917 -0.000000 0.128333 0.285671 -0.378025
7.790000 -118.033939 620.596466 -0.000000 0.418541 0.352232 -0.131116 161.863894 178.370637 -0.000000 0.129443 0.295008 -0.377921
7.795000 -133.217528 650.910744 -0.000000 0.418595 0.341761 -0.131264 161.826528 169.513304 -0.000000 0.131273 0.304423 -0.377785
7.800000 -145.258793 678.136438 -0.000000 0.417939 0.331130 -0.131327 160.548957 158.376672 -0.000000 0.133485 0.313784 -0.377653
7.805000 -153.777289 702.190775 -0.000000 0.416799 0.320546 -0.131193 157.888091 145.349528 -0.000000 0.136231 0.323123 -0.377420
7.810000 -157.226833 723.390008 -0.000000 0.415106 0.309735 -0.131172 154.079793 130.499148 -0.000000 0.139464 0.332558 -0.377034
7.815000 -156.687793 741.613567 -0.000000 0.412962 0.299067 -0.131034 148.927949 114.399609 -0.000000 0.143261 0.341902 -0.376862
7.820000 -152.054947 757.071096 -0.000000 0.410252 0.288648 -0.131108 142.535686 97.320350 -0.000000 0.147262 0.351303 -0.375768
7.825000 -143.395396 769.923814 -0.000000 0.406745 0.278303 -0.131441 134.958498 79.603824 -0.000000 0.152028 0.360329 -0.375287
7.830000 -130.703823 780.310641 -0.000000 0.402751 0.268264 -0.131510 126.251376 61.580657 -0.000000 0.157316 0.369261 -0.374962
7.835000 -114.314020 788.275207 -0.000000 0.398341 0.258517 -0.131773 116.401144 43.546237 -0.000000 0.163036 0.378020 -0.374708
7.840000 -93.617130 793.942242 -0.000000 0.393252 0.249017 -0.131923 105.350817 25.550953 -0.000000 0.169275 0.386639 -0.374463
7.845000 -68.611439 797.232082 -0.000000 0.387773 0.239650 -0.132288 92.873586 7.685164 -0.000000 0.175917 0.395321 -0.374225
7.850000 -41.675021 797.828985 -0.000000 0.381808 0.230636 -0.132550 78.699775 -9.783001 -0.000000 0.183062 0.403336 -0.373793
7.855000 -13.057025 795.675998 -0.000000 0.375414 0.222013 -0.132698 62.677448 -26.986351 -0.000000 0.190634 0.410797 -0.373504
7.860000 17.727495 790.650893 -0.000000 0.368529 0.213757 -0.133514 44.679637 -44.158774 -0.000000 0.198699 0.417908 -0.373371
7.865000 50.023384 782.540742 -0.000000 0.361219 0.205912 -0.133699 24.726323 -61.412741 -0.000000 0.207114 0.424816 -0.373209
7.870000 83.957279 771.075258 -0.000000 0.353416 0.198281 -0.133943 2.993304 -78.780259 -0.000000 0.215860 0.431672 -0.373062
7.875000 117.514779 756.236973 -0.000000 0.345202 0.191441 -0.134262 -19.867867 -96.122074 -0.000000 0.224924 0.438266 -0.373102
7.880000 149.830196 738.143650 -0.000000 0.336706 0.185071 -0.134448 -43.036251 -113.244834 -0.000000 0.234097 0.444673 -0.373364
7.885000 180.333374 717.018525 -0.000000 0.327924 0.179065 -0.134663 -65.613421 -129.770024 -0.000000 0.243433 0.450807 -0.373767
7.890000 207.027885 693.605124 -0.000000 0.319022 0.174034 -0.134981 -86.360925 -145.299672 -0.000000 0.252682 0.456605 -0.373533
7.895000 230.339992 668.140481 -0.000000 0.309884 0.169295 -0.135198 -104.482447 -159.125109 -0.000000 0.261830 0.462031 -0.373550
7.900000 249.808884 641.102035 -0.000000 0.300751 0.165147 -0.135669 -119.201502 -170.565907 -0.000000 0.271084 0.467127 -0.373164
7.905000 265.377498 612.876415 -0.000000 0.291536 0.161778 -0.135972 -130.109911 -178.938262 -0.000000 0.280382 0.471779 -0.372849
7.910000 277.016109 583.818951 -0.000000 0.282187 0.158923 -0.136057 -137.112486 -183.694998 -0.000000 0.289592 0.475771 -0.372472
7.915000 284.823381 554.163428 -0.000000 0.272840 0.156613 -0.136183 -140.406474 -184.492441 -0.000000 0.298791 0.479162 -0.372045
7.920000 288.790985 524.141645 -0.000000 0.263792 0.154870 -0.136446 -140.343766 -181.301144 -0.000000 0.308069 0.481855 -0.371733
7.925000 289.833283 493.407728 -0.000000 0.254664 0.153727 -0.136691 -137.727268 -174.127663 -0.000000 0.317332 0.483705 -0.371387
